FFmpeg version SVN-r25716, Copyright (c) 2000-2010 the FFmpeg developers  built on Nov 10 2010 12:23:18 with gcc 4.1.2 20080704 (Red Hat 4.1.2-48)  configuration: --enable-libmp3lame --enable-shared --disable-mmx --arch=x86_64  libavutil     50.33. 0 / 50.33. 0  libavcore      0.12. 1 /  0.12. 1  libavcodec    52.94. 4 / 52.94. 4  libavformat   52.84. 0 / 52.84. 0  libavdevice   52. 2. 2 / 52. 2. 2  libavfilter    1.59. 0 /  1.59. 0  libswscale     0.12. 0 /  0.12. 0Seems stream 0 codec frame rate differs from container frame rate: 1200.00 (1200/1) -> 12.00 (12/1)Input #0, mov,mp4,m4a,3gp,3g2,mj2, from '/RAID10/data/converted_video_files/8080.mov':  Metadata:    major_brand     : qt      minor_version   : 537199360    compatible_brands: qt    Duration: 00:00:38.33, start: 0.000000, bitrate: 6508 kb/s    Stream #0.0(eng): Video: h264, yuv420p, 640x480, 6506 kb/s, 12 fps, 12 tbr, 600 tbn, 1200 tbc[buffer @ 0x14ebe890] w:640 h:480 pixfmt:yuv420pOutput #0, flv, to '/RAID10/data/converted_video_files/8080.flv':  Metadata:    encoder         : Lavf52.84.0    Stream #0.0(eng): Video: flv, yuv420p, 640x480, q=2-31, 600 kb/s, 1k tbn, 24 tbcStream mapping:  Stream #0.0 -> #0.0Press [q] to stop encodingframe=   27 fps=  0 q=31.0 size=     439kB time=2.21 bitrate=1626.8kbits/s    frame=   58 fps= 57 q=31.0 size=     574kB time=4.79 bitrate= 980.9kbits/s    frame=   89 fps= 58 q=31.0 size=     719kB time=7.37 bitrate= 798.6kbits/s    frame=  119 fps= 58 q=31.0 size=     863kB time=9.87 bitrate= 715.8kbits/s    frame=  150 fps= 59 q=31.0 size=    1022kB time=12.46 bitrate= 671.9kbits/s    frame=  180 fps= 59 q=31.0 size=    1177kB time=14.96 bitrate= 644.4kbits/s    frame=  210 fps= 59 q=31.0 size=    1338kB time=17.46 bitrate= 628.0kbits/s    frame=  239 fps= 58 q=31.0 size=    1488kB time=19.87 bitrate= 613.3kbits/s    frame=  268 fps= 58 q=31.0 size=    1652kB time=22.29 bitrate= 607.0kbits/s    frame=  297 fps= 58 q=31.0 size=    1810kB time=24.71 bitrate= 600.2kbits/s    frame=  325 fps= 58 q=31.0 size=    1966kB time=27.04 bitrate= 595.6kbits/s    frame=  353 fps= 58 q=31.0 size=    2149kB time=29.37 bitrate= 599.3kbits/s    frame=  381 fps= 58 q=31.0 size=    2306kB time=31.71 bitrate= 595.9kbits/s    frame=  410 fps= 57 q=31.0 size=    2467kB time=34.12 bitrate= 592.2kbits/s    frame=  440 fps= 58 q=24.8 size=    2601kB time=36.62 bitrate= 581.9kbits/s    frame=  460 fps= 58 q=29.6 Lsize=    2680kB time=38.29 bitrate= 573.3kbits/s    video:2672kB audio:0kB global headers:0kB muxing overhead 0.276637%